<svg xmlns="http://www.w3.org/2000/svg" viewBox="0 0 1440 320">
  <path fill="#fff" fill-opacity="1" d="M0,192L24,192C48,192,96,192,144,170.7C192,149,240,107,288,106.7C336,107,384,149,432,165.3C480,181,528,171,576,149.3C624,128,672,96,720,90.7C768,85,816,107,864,144C912,181,960,235,1008,218.7C1056,203,1104,117,1152,90.7C1200,64,1248,96,1296,117.3C1344,139,1392,149,1416,154.7L1440,160L1440,320L1416,320C1392,320,1344,320,1296,320C1248,320,1200,320,1152,320C1104,320,1056,320,1008,320C960,320,912,320,864,320C816,320,768,320,720,320C672,320,624,320,576,320C528,320,480,320,432,320C384,320,336,320,288,320C240,320,192,320,144,320C96,320,48,320,24,320L0,320Z"></path>
</svg>